<svg xmlns="http://www.w3.org/2000/svg" xmlns:xlink="http://www.w3.org/1999/xlink" width="1366" zoomAndPan="magnify" viewBox="0 0 1024.5 576" height="768" preserveAspectRatio="xMidYMid meet" version="1.0"><defs><g/><clipPath id="00a98b963c"><path d="M 695.546875 339.210938 L 727.828125 339.210938 L 727.828125 376.160156 L 695.546875 376.160156 Z M 695.546875 339.210938 " clip-rule="nonzero"/></clipPath><clipPath id="b6690a8c1a"><path d="M 727.828125 357.65625 L 695.546875 376.105469 L 695.546875 339.210938 Z M 727.828125 357.65625 " clip-rule="nonzero"/></clipPath><clipPath id="0c3224c925"><path d="M 362.050781 265 L 703.882812 265 L 703.882812 304.035156 L 362.050781 304.035156 Z M 362.050781 265 " clip-rule="nonzero"/></clipPath><clipPath id="97c1506cf3"><path d="M 627 138.367188 L 642 138.367188 L 642 153 L 627 153 Z M 627 138.367188 " clip-rule="nonzero"/></clipPath></defs><g clip-path="url(#00a98b963c)"><g clip-path="url(#b6690a8c1a)"><path fill="#fc5909" d="M 727.828125 339.210938 L 727.828125 376.160156 L 695.546875 376.160156 L 695.546875 339.210938 Z M 727.828125 339.210938 " fill-opacity="1" fill-rule="nonzero"/></g></g><g clip-path="url(#0c3224c925)"><path fill="#393536" d="M 532.949219 279.964844 C 597.675781 279.964844 657.128906 288.980469 703.859375 304.039062 C 669.042969 280.871094 605.53125 265.367188 532.949219 265.367188 C 460.371094 265.367188 396.859375 280.871094 362.042969 304.039062 C 408.777344 288.980469 468.226562 279.964844 532.949219 279.964844 " fill-opacity="1" fill-rule="nonzero"/></g><path fill="#393536" d="M 541.496094 238.199219 C 559.574219 238.199219 574.234375 252.878906 574.234375 271 L 508.753906 271 C 508.753906 252.878906 523.410156 238.199219 541.496094 238.199219 " fill-opacity="1" fill-rule="nonzero"/><path fill="#393536" d="M 541.496094 238.199219 L 488.742188 185.34375 L 541.496094 251.9375 Z M 541.496094 238.199219 " fill-opacity="1" fill-rule="nonzero"/><path fill="#393536" d="M 541.496094 238.199219 L 634.285156 145.226562 L 541.496094 251.9375 Z M 541.496094 238.199219 " fill-opacity="1" fill-rule="nonzero"/><path fill="#393536" d="M 481.890625 185.34375 C 481.890625 189.132812 484.957031 192.207031 488.742188 192.207031 C 492.523438 192.207031 495.59375 189.132812 495.59375 185.34375 C 495.59375 181.550781 492.523438 178.476562 488.742188 178.476562 C 484.957031 178.476562 481.890625 181.550781 481.890625 185.34375 " fill-opacity="1" fill-rule="nonzero"/><g clip-path="url(#97c1506cf3)"><path fill="#393536" d="M 627.433594 145.226562 C 627.433594 149.019531 630.5 152.09375 634.285156 152.09375 C 638.070312 152.09375 641.136719 149.019531 641.136719 145.226562 C 641.136719 141.4375 638.070312 138.363281 634.285156 138.363281 C 630.5 138.363281 627.433594 141.4375 627.433594 145.226562 " fill-opacity="1" fill-rule="nonzero"/></g><g fill="#fcc509" fill-opacity="0.4"><g transform="translate(374.568213, 380.377331)"><g><path d="M 53.878906 0.785156 C 59.582031 0.785156 63.613281 -3.144531 63.613281 -14.847656 C 63.710938 -35.789062 62.925781 -53.488281 61.746094 -66.269531 C 61.648438 -67.742188 60.664062 -68.53125 59.289062 -68.824219 C 57.421875 -69.121094 56.042969 -69.21875 54.765625 -69.21875 C 53.09375 -69.21875 51.226562 -69.21875 49.359375 -68.921875 C 47.6875 -68.53125 46.507812 -67.449219 46.800781 -65.582031 C 48.570312 -55.648438 53.09375 -30.382812 47.390625 -30.382812 C 42.867188 -30.382812 29.792969 -52.996094 23.105469 -65.382812 C 21.628906 -67.351562 19.859375 -68.53125 17.5 -68.824219 C 15.042969 -69.21875 13.46875 -69.21875 12.289062 -69.21875 C 11.109375 -69.21875 9.046875 -69.21875 7.375 -68.824219 C 5.996094 -68.53125 5.113281 -67.742188 4.917969 -66.269531 C 3.539062 -51.71875 2.851562 -25.5625 2.753906 -2.753906 C 2.753906 -1.179688 3.933594 -0.296875 5.308594 0 C 7.667969 0.394531 9.832031 0.394531 11.109375 0.394531 C 12.289062 0.394531 15.4375 0.394531 17.207031 0.0976562 C 18.679688 -0.195312 19.960938 -1.277344 19.761719 -3.046875 C 19.074219 -9.242188 17.894531 -20.941406 17.894531 -28.511719 C 17.992188 -33.824219 19.269531 -36.476562 21.140625 -36.476562 C 28.710938 -36.476562 40.3125 0.785156 53.878906 0.785156 Z M 53.878906 0.785156 "/></g></g></g><g fill="#fcc509" fill-opacity="0.4"><g transform="translate(437.098921, 380.377331)"><g><path d="M 18.386719 0.785156 C 25.367188 0.785156 32.25 -3.246094 35.296875 -9.734375 C 36.085938 -11.40625 37.558594 -11.011719 37.363281 -9.144531 C 37.164062 -7.078125 36.773438 -4.71875 36.574219 -3.441406 C 36.28125 -1.769531 37.558594 -0.394531 39.230469 -0.0976562 C 40.804688 0.296875 43.65625 0.394531 45.226562 0.394531 C 47.097656 0.394531 49.160156 0.296875 50.539062 -0.0976562 C 52.210938 -0.394531 53.289062 -1.476562 53.289062 -3.144531 C 52.898438 -12.09375 52.210938 -26.253906 51.617188 -33.824219 C 50.339844 -48.078125 41.886719 -54.273438 26.84375 -54.273438 C 20.550781 -54.273438 14.453125 -53.390625 9.144531 -51.71875 C 7.964844 -51.226562 7.375 -50.144531 7.175781 -48.667969 C 6.882812 -46.703125 6.195312 -40.902344 6.097656 -38.835938 C 5.898438 -35.886719 8.457031 -34.804688 9.929688 -36.871094 C 14.648438 -41 21.433594 -42.769531 27.332031 -42.769531 C 34.3125 -42.769531 36.871094 -40.507812 36.871094 -38.445312 C 36.871094 -34.90625 32.839844 -33.722656 21.53125 -32.152344 C 9.242188 -30.085938 1.769531 -24.480469 1.769531 -14.648438 C 1.769531 -3.441406 8.457031 0.785156 18.386719 0.785156 Z M 25.070312 -11.40625 C 19.171875 -11.40625 16.714844 -13.175781 16.714844 -17.601562 C 16.714844 -23.597656 23.402344 -27.628906 30.382812 -27.628906 C 35.003906 -27.628906 36.675781 -25.367188 36.675781 -22.222656 C 36.675781 -15.339844 29.988281 -11.40625 25.070312 -11.40625 Z M 25.070312 -11.40625 "/></g></g></g><g fill="#fcc509" fill-opacity="0.4"><g transform="translate(488.814518, 380.377331)"><g><path d="M 26.253906 0.6875 C 41.984375 0.6875 50.339844 -5.507812 50.339844 -14.945312 C 50.339844 -32.839844 17.894531 -30.382812 17.894531 -38.246094 C 17.894531 -41.296875 22.417969 -43.164062 28.023438 -43.164062 C 33.332031 -43.164062 39.132812 -41.296875 42.867188 -38.640625 C 44.34375 -37.265625 46.507812 -37.363281 46.507812 -40.707031 C 46.507812 -43.359375 46.507812 -46.015625 46.40625 -48.667969 C 46.40625 -50.144531 45.425781 -51.421875 43.851562 -52.011719 C 39.230469 -53.390625 31.953125 -54.175781 27.136719 -54.175781 C 13.273438 -54.175781 3.246094 -49.160156 3.246094 -39.527344 C 3.246094 -21.828125 35.691406 -24.875 35.691406 -16.222656 C 35.691406 -12.386719 32.152344 -10.914062 25.464844 -10.914062 C 18.878906 -10.914062 10.71875 -13.667969 6.195312 -17.5 C 4.917969 -19.074219 2.554688 -18.679688 2.359375 -15.828125 C 2.164062 -12.585938 2.066406 -9.4375 1.867188 -6.195312 C 1.769531 -4.425781 2.753906 -3.34375 4.226562 -2.753906 C 9.929688 -0.984375 19.371094 0.6875 26.253906 0.6875 Z M 26.253906 0.6875 "/></g></g></g><g fill="#fc5909" fill-opacity="1"><g transform="translate(374.568213, 380.377331)"><g><path d="M 53.878906 0.785156 C 59.582031 0.785156 63.613281 -3.144531 63.613281 -14.847656 C 63.710938 -35.789062 62.925781 -53.488281 61.746094 -66.269531 C 61.648438 -67.742188 60.664062 -68.53125 59.289062 -68.824219 C 57.421875 -69.121094 56.042969 -69.21875 54.765625 -69.21875 C 53.09375 -69.21875 51.226562 -69.21875 49.359375 -68.921875 C 47.6875 -68.53125 46.507812 -67.449219 46.800781 -65.582031 C 48.570312 -55.648438 53.09375 -30.382812 47.390625 -30.382812 C 42.867188 -30.382812 29.792969 -52.996094 23.105469 -65.382812 C 21.628906 -67.351562 19.859375 -68.53125 17.5 -68.824219 C 15.042969 -69.21875 13.46875 -69.21875 12.289062 -69.21875 C 11.109375 -69.21875 9.046875 -69.21875 7.375 -68.824219 C 5.996094 -68.53125 5.113281 -67.742188 4.917969 -66.269531 C 3.539062 -51.71875 2.851562 -25.5625 2.753906 -2.753906 C 2.753906 -1.179688 3.933594 -0.296875 5.308594 0 C 7.667969 0.394531 9.832031 0.394531 11.109375 0.394531 C 12.289062 0.394531 15.4375 0.394531 17.207031 0.0976562 C 18.679688 -0.195312 19.960938 -1.277344 19.761719 -3.046875 C 19.074219 -9.242188 17.894531 -20.941406 17.894531 -28.511719 C 17.992188 -33.824219 19.269531 -36.476562 21.140625 -36.476562 C 28.710938 -36.476562 40.3125 0.785156 53.878906 0.785156 Z M 53.878906 0.785156 "/></g></g></g><g fill="#fc5909" fill-opacity="1"><g transform="translate(437.098921, 380.377331)"><g><path d="M 18.386719 0.785156 C 25.367188 0.785156 32.25 -3.246094 35.296875 -9.734375 C 36.085938 -11.40625 37.558594 -11.011719 37.363281 -9.144531 C 37.164062 -7.078125 36.773438 -4.71875 36.574219 -3.441406 C 36.28125 -1.769531 37.558594 -0.394531 39.230469 -0.0976562 C 40.804688 0.296875 43.65625 0.394531 45.226562 0.394531 C 47.097656 0.394531 49.160156 0.296875 50.539062 -0.0976562 C 52.210938 -0.394531 53.289062 -1.476562 53.289062 -3.144531 C 52.898438 -12.09375 52.210938 -26.253906 51.617188 -33.824219 C 50.339844 -48.078125 41.886719 -54.273438 26.84375 -54.273438 C 20.550781 -54.273438 14.453125 -53.390625 9.144531 -51.71875 C 7.964844 -51.226562 7.375 -50.144531 7.175781 -48.667969 C 6.882812 -46.703125 6.195312 -40.902344 6.097656 -38.835938 C 5.898438 -35.886719 8.457031 -34.804688 9.929688 -36.871094 C 14.648438 -41 21.433594 -42.769531 27.332031 -42.769531 C 34.3125 -42.769531 36.871094 -40.507812 36.871094 -38.445312 C 36.871094 -34.90625 32.839844 -33.722656 21.53125 -32.152344 C 9.242188 -30.085938 1.769531 -24.480469 1.769531 -14.648438 C 1.769531 -3.441406 8.457031 0.785156 18.386719 0.785156 Z M 25.070312 -11.40625 C 19.171875 -11.40625 16.714844 -13.175781 16.714844 -17.601562 C 16.714844 -23.597656 23.402344 -27.628906 30.382812 -27.628906 C 35.003906 -27.628906 36.675781 -25.367188 36.675781 -22.222656 C 36.675781 -15.339844 29.988281 -11.40625 25.070312 -11.40625 Z M 25.070312 -11.40625 "/></g></g></g><g fill="#fc5909" fill-opacity="1"><g transform="translate(488.814518, 380.377331)"><g><path d="M 26.253906 0.6875 C 41.984375 0.6875 50.339844 -5.507812 50.339844 -14.945312 C 50.339844 -32.839844 17.894531 -30.382812 17.894531 -38.246094 C 17.894531 -41.296875 22.417969 -43.164062 28.023438 -43.164062 C 33.332031 -43.164062 39.132812 -41.296875 42.867188 -38.640625 C 44.34375 -37.265625 46.507812 -37.363281 46.507812 -40.707031 C 46.507812 -43.359375 46.507812 -46.015625 46.40625 -48.667969 C 46.40625 -50.144531 45.425781 -51.421875 43.851562 -52.011719 C 39.230469 -53.390625 31.953125 -54.175781 27.136719 -54.175781 C 13.273438 -54.175781 3.246094 -49.160156 3.246094 -39.527344 C 3.246094 -21.828125 35.691406 -24.875 35.691406 -16.222656 C 35.691406 -12.386719 32.152344 -10.914062 25.464844 -10.914062 C 18.878906 -10.914062 10.71875 -13.667969 6.195312 -17.5 C 4.917969 -19.074219 2.554688 -18.679688 2.359375 -15.828125 C 2.164062 -12.585938 2.066406 -9.4375 1.867188 -6.195312 C 1.769531 -4.425781 2.753906 -3.34375 4.226562 -2.753906 C 9.929688 -0.984375 19.371094 0.6875 26.253906 0.6875 Z M 26.253906 0.6875 "/></g></g></g><g fill="#3b3f3f" fill-opacity="1"><g transform="translate(541.032386, 372.945393)"><g><path d="M 21.65625 -11.59375 L 33.828125 -31.1875 L 40.734375 -31.1875 L 39.21875 0 L 31.6875 0 L 32.625 -17.421875 L 21.796875 0 L 17.640625 0 L 13.59375 -17.46875 L 7.703125 0 L 0 0 L 10.609375 -31.1875 L 17.109375 -31.1875 Z M 21.65625 -11.59375 "/></g></g></g><g fill="#3b3f3f" fill-opacity="1"><g transform="translate(582.953627, 372.945393)"><g><path d="M 18 0.578125 C 15.125 0.578125 12.503906 -0.03125 10.140625 -1.25 C 7.773438 -2.46875 5.910156 -4.191406 4.546875 -6.421875 C 3.179688 -8.648438 2.5 -11.203125 2.5 -14.078125 C 2.5 -17.171875 3.285156 -20.078125 4.859375 -22.796875 C 6.429688 -25.515625 8.597656 -27.6875 11.359375 -29.3125 C 14.117188 -30.945312 17.222656 -31.765625 20.671875 -31.765625 C 23.585938 -31.765625 26.222656 -31.15625 28.578125 -29.9375 C 30.941406 -28.726562 32.804688 -27.007812 34.171875 -24.78125 C 35.546875 -22.550781 36.234375 -19.992188 36.234375 -17.109375 C 36.234375 -14.023438 35.441406 -11.125 33.859375 -8.40625 C 32.285156 -5.6875 30.109375 -3.507812 27.328125 -1.875 C 24.554688 -0.238281 21.445312 0.578125 18 0.578125 Z M 18.40625 -6.546875 C 20.300781 -6.546875 22 -7.019531 23.5 -7.96875 C 25 -8.925781 26.164062 -10.191406 27 -11.765625 C 27.832031 -13.335938 28.25 -14.988281 28.25 -16.71875 C 28.25 -18.195312 27.9375 -19.535156 27.3125 -20.734375 C 26.6875 -21.941406 25.769531 -22.894531 24.5625 -23.59375 C 23.363281 -24.289062 21.953125 -24.640625 20.328125 -24.640625 C 18.421875 -24.640625 16.71875 -24.164062 15.21875 -23.21875 C 13.71875 -22.269531 12.550781 -21.015625 11.71875 -19.453125 C 10.882812 -17.890625 10.46875 -16.234375 10.46875 -14.484375 C 10.46875 -12.992188 10.78125 -11.644531 11.40625 -10.4375 C 12.03125 -9.238281 12.941406 -8.289062 14.140625 -7.59375 C 15.347656 -6.894531 16.769531 -6.546875 18.40625 -6.546875 Z M 18.40625 -6.546875 "/></g></g></g><g fill="#3b3f3f" fill-opacity="1"><g transform="translate(618.326008, 372.945393)"><g><path d="M 15.15625 -10.421875 L 26.109375 -31.1875 L 34.71875 -31.1875 L 17.15625 0 L 9.890625 0 L 4.28125 -31.1875 L 12.171875 -31.1875 Z M 15.15625 -10.421875 "/></g></g></g><g fill="#3b3f3f" fill-opacity="1"><g transform="translate(647.906874, 372.945393)"><g><path d="M 9.453125 0 L 1.65625 0 L 7.625 -31.1875 L 15.421875 -31.1875 Z M 9.453125 0 "/></g></g></g><g fill="#3b3f3f" fill-opacity="1"><g transform="translate(661.672479, 372.945393)"><g><path d="M 27.578125 -31.1875 L 26.34375 -24.546875 L 13.953125 -24.546875 L 12.921875 -19.15625 L 24.828125 -19.15625 L 23.625 -12.703125 L 11.671875 -12.703125 L 10.515625 -6.640625 L 23.34375 -6.640625 L 22.0625 0 L 1.421875 0 L 7.390625 -31.1875 Z M 27.578125 -31.1875 "/></g></g></g><g fill="#3b3f3f" fill-opacity="1"><g transform="translate(318.679068, 408.072037)"><g><path d="M 7.078125 -4.1875 L 7.078125 0 L 4.34375 0 L 4.34375 -4.21875 L -0.234375 -11.8125 L 2.671875 -11.8125 L 5.828125 -6.5625 L 8.984375 -11.8125 L 11.65625 -11.8125 Z M 7.078125 -4.1875 "/></g></g></g><g fill="#3b3f3f" fill-opacity="1"><g transform="translate(343.144042, 408.072037)"><g><path d="M 7.125 0.203125 C 5.894531 0.203125 4.785156 -0.0625 3.796875 -0.59375 C 2.816406 -1.125 2.046875 -1.851562 1.484375 -2.78125 C 0.929688 -3.707031 0.65625 -4.75 0.65625 -5.90625 C 0.65625 -7.0625 0.929688 -8.101562 1.484375 -9.03125 C 2.046875 -9.957031 2.816406 -10.6875 3.796875 -11.21875 C 4.785156 -11.75 5.894531 -12.015625 7.125 -12.015625 C 8.34375 -12.015625 9.441406 -11.75 10.421875 -11.21875 C 11.398438 -10.6875 12.171875 -9.957031 12.734375 -9.03125 C 13.296875 -8.101562 13.578125 -7.0625 13.578125 -5.90625 C 13.578125 -4.75 13.296875 -3.707031 12.734375 -2.78125 C 12.171875 -1.851562 11.398438 -1.125 10.421875 -0.59375 C 9.441406 -0.0625 8.34375 0.203125 7.125 0.203125 Z M 7.125 -2.125 C 7.820312 -2.125 8.453125 -2.285156 9.015625 -2.609375 C 9.578125 -2.929688 10.015625 -3.378906 10.328125 -3.953125 C 10.648438 -4.523438 10.8125 -5.175781 10.8125 -5.90625 C 10.8125 -6.632812 10.648438 -7.285156 10.328125 -7.859375 C 10.015625 -8.429688 9.578125 -8.878906 9.015625 -9.203125 C 8.453125 -9.523438 7.820312 -9.6875 7.125 -9.6875 C 6.425781 -9.6875 5.796875 -9.523438 5.234375 -9.203125 C 4.671875 -8.878906 4.226562 -8.429688 3.90625 -7.859375 C 3.582031 -7.285156 3.421875 -6.632812 3.421875 -5.90625 C 3.421875 -5.175781 3.582031 -4.523438 3.90625 -3.953125 C 4.226562 -3.378906 4.671875 -2.929688 5.234375 -2.609375 C 5.796875 -2.285156 6.425781 -2.125 7.125 -2.125 Z M 7.125 -2.125 "/></g></g></g><g fill="#3b3f3f" fill-opacity="1"><g transform="translate(370.444589, 408.072037)"><g><path d="M 6.65625 0.203125 C 4.96875 0.203125 3.648438 -0.257812 2.703125 -1.1875 C 1.765625 -2.125 1.296875 -3.460938 1.296875 -5.203125 L 1.296875 -11.8125 L 4.03125 -11.8125 L 4.03125 -5.296875 C 4.03125 -3.179688 4.910156 -2.125 6.671875 -2.125 C 7.523438 -2.125 8.175781 -2.378906 8.625 -2.890625 C 9.070312 -3.398438 9.296875 -4.203125 9.296875 -5.296875 L 9.296875 -11.8125 L 12 -11.8125 L 12 -5.203125 C 12 -3.460938 11.53125 -2.125 10.59375 -1.1875 C 9.65625 -0.257812 8.34375 0.203125 6.65625 0.203125 Z M 6.65625 0.203125 "/></g></g></g><g fill="#3b3f3f" fill-opacity="1"><g transform="translate(396.799948, 408.072037)"><g><path d="M 8.921875 0 L 6.65625 -3.296875 L 4.140625 -3.296875 L 4.140625 0 L 1.40625 0 L 1.40625 -11.8125 L 6.515625 -11.8125 C 7.554688 -11.8125 8.460938 -11.632812 9.234375 -11.28125 C 10.003906 -10.9375 10.597656 -10.441406 11.015625 -9.796875 C 11.429688 -9.160156 11.640625 -8.40625 11.640625 -7.53125 C 11.640625 -6.644531 11.425781 -5.882812 11 -5.25 C 10.582031 -4.613281 9.988281 -4.128906 9.21875 -3.796875 L 11.859375 0 Z M 8.875 -7.53125 C 8.875 -8.1875 8.660156 -8.691406 8.234375 -9.046875 C 7.804688 -9.398438 7.179688 -9.578125 6.359375 -9.578125 L 4.140625 -9.578125 L 4.140625 -5.46875 L 6.359375 -5.46875 C 7.179688 -5.46875 7.804688 -5.644531 8.234375 -6 C 8.660156 -6.363281 8.875 -6.875 8.875 -7.53125 Z M 8.875 -7.53125 "/></g></g></g><g fill="#3b3f3f" fill-opacity="1"><g transform="translate(422.260748, 408.072037)"><g><path d="M 0 0 L 8.4375 0 L 8.4375 1.515625 L 0 1.515625 Z M 0 0 "/></g></g></g><g fill="#3b3f3f" fill-opacity="1"><g transform="translate(443.755112, 408.072037)"><g><path d="M 6.515625 -11.8125 C 7.554688 -11.8125 8.460938 -11.632812 9.234375 -11.28125 C 10.003906 -10.9375 10.597656 -10.441406 11.015625 -9.796875 C 11.429688 -9.160156 11.640625 -8.40625 11.640625 -7.53125 C 11.640625 -6.664062 11.429688 -5.90625 11.015625 -5.25 C 10.597656 -4.601562 10.003906 -4.109375 9.234375 -3.765625 C 8.460938 -3.421875 7.554688 -3.25 6.515625 -3.25 L 4.140625 -3.25 L 4.140625 0 L 1.40625 0 L 1.40625 -11.8125 Z M 6.359375 -5.484375 C 7.179688 -5.484375 7.804688 -5.660156 8.234375 -6.015625 C 8.660156 -6.367188 8.875 -6.875 8.875 -7.53125 C 8.875 -8.1875 8.660156 -8.691406 8.234375 -9.046875 C 7.804688 -9.398438 7.179688 -9.578125 6.359375 -9.578125 L 4.140625 -9.578125 L 4.140625 -5.484375 Z M 6.359375 -5.484375 "/></g></g></g><g fill="#3b3f3f" fill-opacity="1"><g transform="translate(469.165279, 408.072037)"><g><path d="M 1.40625 -11.8125 L 4.140625 -11.8125 L 4.140625 -2.234375 L 10.0625 -2.234375 L 10.0625 0 L 1.40625 0 Z M 1.40625 -11.8125 "/></g></g></g><g fill="#3b3f3f" fill-opacity="1"><g transform="translate(492.414998, 408.072037)"><g><path d="M 9.1875 -2.53125 L 3.703125 -2.53125 L 2.65625 0 L -0.15625 0 L 5.109375 -11.8125 L 7.8125 -11.8125 L 13.09375 0 L 10.21875 0 Z M 8.3125 -4.609375 L 6.453125 -9.125 L 4.578125 -4.609375 Z M 8.3125 -4.609375 "/></g></g></g><g fill="#3b3f3f" fill-opacity="1"><g transform="translate(518.399023, 408.072037)"><g><path d="M 7.078125 -4.1875 L 7.078125 0 L 4.34375 0 L 4.34375 -4.21875 L -0.234375 -11.8125 L 2.671875 -11.8125 L 5.828125 -6.5625 L 8.984375 -11.8125 L 11.65625 -11.8125 Z M 7.078125 -4.1875 "/></g></g></g><g fill="#3b3f3f" fill-opacity="1"><g transform="translate(542.864003, 408.072037)"><g><path d="M 1.40625 -11.8125 L 4.140625 -11.8125 L 4.140625 -2.234375 L 10.0625 -2.234375 L 10.0625 0 L 1.40625 0 Z M 1.40625 -11.8125 "/></g></g></g><g fill="#3b3f3f" fill-opacity="1"><g transform="translate(566.113734, 408.072037)"><g><path d="M 1.40625 -11.8125 L 4.140625 -11.8125 L 4.140625 0 L 1.40625 0 Z M 1.40625 -11.8125 "/></g></g></g><g fill="#3b3f3f" fill-opacity="1"><g transform="translate(584.705017, 408.072037)"><g><path d="M 5.28125 0.203125 C 4.34375 0.203125 3.4375 0.078125 2.5625 -0.171875 C 1.695312 -0.429688 1 -0.765625 0.46875 -1.171875 L 1.40625 -3.21875 C 1.90625 -2.851562 2.503906 -2.554688 3.203125 -2.328125 C 3.898438 -2.097656 4.597656 -1.984375 5.296875 -1.984375 C 6.078125 -1.984375 6.648438 -2.097656 7.015625 -2.328125 C 7.390625 -2.566406 7.578125 -2.875 7.578125 -3.25 C 7.578125 -3.53125 7.46875 -3.765625 7.25 -3.953125 C 7.03125 -4.140625 6.75 -4.289062 6.40625 -4.40625 C 6.0625 -4.519531 5.597656 -4.644531 5.015625 -4.78125 C 4.109375 -4.988281 3.367188 -5.195312 2.796875 -5.40625 C 2.222656 -5.625 1.726562 -5.96875 1.3125 -6.4375 C 0.90625 -6.914062 0.703125 -7.550781 0.703125 -8.34375 C 0.703125 -9.019531 0.890625 -9.632812 1.265625 -10.1875 C 1.640625 -10.75 2.195312 -11.191406 2.9375 -11.515625 C 3.6875 -11.847656 4.601562 -12.015625 5.6875 -12.015625 C 6.4375 -12.015625 7.171875 -11.921875 7.890625 -11.734375 C 8.617188 -11.554688 9.25 -11.300781 9.78125 -10.96875 L 8.9375 -8.890625 C 7.851562 -9.515625 6.765625 -9.828125 5.671875 -9.828125 C 4.898438 -9.828125 4.332031 -9.703125 3.96875 -9.453125 C 3.601562 -9.203125 3.421875 -8.875 3.421875 -8.46875 C 3.421875 -8.0625 3.628906 -7.757812 4.046875 -7.5625 C 4.472656 -7.363281 5.117188 -7.171875 5.984375 -6.984375 C 6.890625 -6.773438 7.628906 -6.5625 8.203125 -6.34375 C 8.773438 -6.132812 9.265625 -5.796875 9.671875 -5.328125 C 10.085938 -4.867188 10.296875 -4.242188 10.296875 -3.453125 C 10.296875 -2.785156 10.101562 -2.171875 9.71875 -1.609375 C 9.34375 -1.054688 8.78125 -0.613281 8.03125 -0.28125 C 7.28125 0.0390625 6.363281 0.203125 5.28125 0.203125 Z M 5.28125 0.203125 "/></g></g></g><g fill="#3b3f3f" fill-opacity="1"><g transform="translate(608.528617, 408.072037)"><g><path d="M 3.84375 -9.578125 L 0.0625 -9.578125 L 0.0625 -11.8125 L 10.359375 -11.8125 L 10.359375 -9.578125 L 6.578125 -9.578125 L 6.578125 0 L 3.84375 0 Z M 3.84375 -9.578125 "/></g></g></g><g fill="#3b3f3f" fill-opacity="1"><g transform="translate(632.014644, 408.072037)"><g><path d="M 0 0 L 8.4375 0 L 8.4375 1.515625 L 0 1.515625 Z M 0 0 "/></g></g></g><g fill="#3b3f3f" fill-opacity="1"><g transform="translate(653.50902, 408.072037)"><g><path d="M 12.75 -11.8125 L 7.640625 0 L 4.9375 0 L -0.15625 -11.8125 L 2.796875 -11.8125 L 6.390625 -3.375 L 10.046875 -11.8125 Z M 12.75 -11.8125 "/></g></g></g><g fill="#3b3f3f" fill-opacity="1"><g transform="translate(679.155484, 408.072037)"><g><path d="M 1.40625 -11.8125 L 4.140625 -11.8125 L 4.140625 0 L 1.40625 0 Z M 1.40625 -11.8125 "/></g></g></g><g fill="#3b3f3f" fill-opacity="1"><g transform="translate(697.746767, 408.072037)"><g><path d="M 1.40625 -11.8125 L 6.765625 -11.8125 C 8.046875 -11.8125 9.175781 -11.566406 10.15625 -11.078125 C 11.144531 -10.585938 11.910156 -9.894531 12.453125 -9 C 13.003906 -8.113281 13.28125 -7.082031 13.28125 -5.90625 C 13.28125 -4.726562 13.003906 -3.691406 12.453125 -2.796875 C 11.910156 -1.910156 11.144531 -1.222656 10.15625 -0.734375 C 9.175781 -0.242188 8.046875 0 6.765625 0 L 1.40625 0 Z M 6.625 -2.25 C 7.8125 -2.25 8.753906 -2.578125 9.453125 -3.234375 C 10.160156 -3.890625 10.515625 -4.78125 10.515625 -5.90625 C 10.515625 -7.03125 10.160156 -7.921875 9.453125 -8.578125 C 8.753906 -9.234375 7.8125 -9.5625 6.625 -9.5625 L 4.140625 -9.5625 L 4.140625 -2.25 Z M 6.625 -2.25 "/></g></g></g><g fill="#3b3f3f" fill-opacity="1"><g transform="translate(724.743524, 408.072037)"><g><path d="M 10.546875 -2.1875 L 10.546875 0 L 1.40625 0 L 1.40625 -11.8125 L 10.328125 -11.8125 L 10.328125 -9.625 L 4.125 -9.625 L 4.125 -7.046875 L 9.609375 -7.046875 L 9.609375 -4.921875 L 4.125 -4.921875 L 4.125 -2.1875 Z M 10.546875 -2.1875 "/></g></g></g><g fill="#3b3f3f" fill-opacity="1"><g transform="translate(749.12411, 408.072037)"><g><path d="M 7.125 0.203125 C 5.894531 0.203125 4.785156 -0.0625 3.796875 -0.59375 C 2.816406 -1.125 2.046875 -1.851562 1.484375 -2.78125 C 0.929688 -3.707031 0.65625 -4.75 0.65625 -5.90625 C 0.65625 -7.0625 0.929688 -8.101562 1.484375 -9.03125 C 2.046875 -9.957031 2.816406 -10.6875 3.796875 -11.21875 C 4.785156 -11.75 5.894531 -12.015625 7.125 -12.015625 C 8.34375 -12.015625 9.441406 -11.75 10.421875 -11.21875 C 11.398438 -10.6875 12.171875 -9.957031 12.734375 -9.03125 C 13.296875 -8.101562 13.578125 -7.0625 13.578125 -5.90625 C 13.578125 -4.75 13.296875 -3.707031 12.734375 -2.78125 C 12.171875 -1.851562 11.398438 -1.125 10.421875 -0.59375 C 9.441406 -0.0625 8.34375 0.203125 7.125 0.203125 Z M 7.125 -2.125 C 7.820312 -2.125 8.453125 -2.285156 9.015625 -2.609375 C 9.578125 -2.929688 10.015625 -3.378906 10.328125 -3.953125 C 10.648438 -4.523438 10.8125 -5.175781 10.8125 -5.90625 C 10.8125 -6.632812 10.648438 -7.285156 10.328125 -7.859375 C 10.015625 -8.429688 9.578125 -8.878906 9.015625 -9.203125 C 8.453125 -9.523438 7.820312 -9.6875 7.125 -9.6875 C 6.425781 -9.6875 5.796875 -9.523438 5.234375 -9.203125 C 4.671875 -8.878906 4.226562 -8.429688 3.90625 -7.859375 C 3.582031 -7.285156 3.421875 -6.632812 3.421875 -5.90625 C 3.421875 -5.175781 3.582031 -4.523438 3.90625 -3.953125 C 4.226562 -3.378906 4.671875 -2.929688 5.234375 -2.609375 C 5.796875 -2.285156 6.425781 -2.125 7.125 -2.125 Z M 7.125 -2.125 "/></g></g></g><g fill="#3b3f3f" fill-opacity="1"><g transform="translate(457.993887, 431.310695)"><g><path d="M 7.046875 0.203125 C 5.847656 0.203125 4.757812 -0.0546875 3.78125 -0.578125 C 2.8125 -1.097656 2.046875 -1.820312 1.484375 -2.75 C 0.929688 -3.6875 0.65625 -4.738281 0.65625 -5.90625 C 0.65625 -7.070312 0.929688 -8.117188 1.484375 -9.046875 C 2.046875 -9.984375 2.8125 -10.710938 3.78125 -11.234375 C 4.757812 -11.753906 5.859375 -12.015625 7.078125 -12.015625 C 8.097656 -12.015625 9.019531 -11.832031 9.84375 -11.46875 C 10.675781 -11.113281 11.375 -10.597656 11.9375 -9.921875 L 10.171875 -8.296875 C 9.378906 -9.222656 8.390625 -9.6875 7.203125 -9.6875 C 6.472656 -9.6875 5.820312 -9.523438 5.25 -9.203125 C 4.675781 -8.878906 4.226562 -8.429688 3.90625 -7.859375 C 3.582031 -7.285156 3.421875 -6.632812 3.421875 -5.90625 C 3.421875 -5.175781 3.582031 -4.523438 3.90625 -3.953125 C 4.226562 -3.378906 4.675781 -2.929688 5.25 -2.609375 C 5.820312 -2.285156 6.472656 -2.125 7.203125 -2.125 C 8.390625 -2.125 9.378906 -2.59375 10.171875 -3.53125 L 11.9375 -1.90625 C 11.375 -1.21875 10.675781 -0.691406 9.84375 -0.328125 C 9.007812 0.0234375 8.078125 0.203125 7.046875 0.203125 Z M 7.046875 0.203125 "/></g></g></g><g fill="#3b3f3f" fill-opacity="1"><g transform="translate(483.420931, 431.310695)"><g><path d="M 12.234375 -11.8125 L 12.234375 0 L 9.5 0 L 9.5 -4.84375 L 4.140625 -4.84375 L 4.140625 0 L 1.40625 0 L 1.40625 -11.8125 L 4.140625 -11.8125 L 4.140625 -7.15625 L 9.5 -7.15625 L 9.5 -11.8125 Z M 12.234375 -11.8125 "/></g></g></g><g fill="#3b3f3f" fill-opacity="1"><g transform="translate(510.113852, 431.310695)"><g><path d="M 9.1875 -2.53125 L 3.703125 -2.53125 L 2.65625 0 L -0.15625 0 L 5.109375 -11.8125 L 7.8125 -11.8125 L 13.09375 0 L 10.21875 0 Z M 8.3125 -4.609375 L 6.453125 -9.125 L 4.578125 -4.609375 Z M 8.3125 -4.609375 "/></g></g></g><g fill="#3b3f3f" fill-opacity="1"><g transform="translate(536.097884, 431.310695)"><g><path d="M 12.234375 -11.8125 L 12.234375 0 L 9.984375 0 L 4.09375 -7.171875 L 4.09375 0 L 1.40625 0 L 1.40625 -11.8125 L 3.65625 -11.8125 L 9.53125 -4.640625 L 9.53125 -11.8125 Z M 12.234375 -11.8125 "/></g></g></g><g fill="#3b3f3f" fill-opacity="1"><g transform="translate(562.790805, 431.310695)"><g><path d="M 12.234375 -11.8125 L 12.234375 0 L 9.984375 0 L 4.09375 -7.171875 L 4.09375 0 L 1.40625 0 L 1.40625 -11.8125 L 3.65625 -11.8125 L 9.53125 -4.640625 L 9.53125 -11.8125 Z M 12.234375 -11.8125 "/></g></g></g><g fill="#3b3f3f" fill-opacity="1"><g transform="translate(589.483732, 431.310695)"><g><path d="M 10.546875 -2.1875 L 10.546875 0 L 1.40625 0 L 1.40625 -11.8125 L 10.328125 -11.8125 L 10.328125 -9.625 L 4.125 -9.625 L 4.125 -7.046875 L 9.609375 -7.046875 L 9.609375 -4.921875 L 4.125 -4.921875 L 4.125 -2.1875 Z M 10.546875 -2.1875 "/></g></g></g><g fill="#3b3f3f" fill-opacity="1"><g transform="translate(613.864319, 431.310695)"><g><path d="M 1.40625 -11.8125 L 4.140625 -11.8125 L 4.140625 -2.234375 L 10.0625 -2.234375 L 10.0625 0 L 1.40625 0 Z M 1.40625 -11.8125 "/></g></g></g></svg>