<?xml version="1.0" standalone="no"?>
<!DOCTYPE svg PUBLIC "-//W3C//DTD SVG 20010904//EN"
 "http://www.w3.org/TR/2001/REC-SVG-20010904/DTD/svg10.dtd">
<svg version="1.0" xmlns="http://www.w3.org/2000/svg"
 width="500.000000pt" height="500.000000pt" viewBox="0 0 500.000000 500.000000"
 preserveAspectRatio="xMidYMid meet">

<g transform="translate(0.000000,500.000000) scale(0.100000,-0.100000)"
fill="#000000" stroke="none">
<path d="M3212 3388 c-18 -18 -14 -46 7 -58 25 -13 48 -4 56 21 12 38 -35 65
-63 37z"/>
<path d="M2925 3050 l-250 -250 -139 138 -139 137 78 -100 c43 -55 94 -119
113 -142 l33 -42 -39 -20 c-43 -22 -80 -65 -91 -109 -7 -27 -9 -27 -137 -39
-166 -16 -373 -57 -496 -98 -97 -33 -253 -103 -246 -110 2 -2 33 5 68 16 99
31 340 77 501 96 183 22 666 24 849 5 197 -22 470 -75 595 -117 55 -18 -56 41
-142 76 -144 59 -399 118 -572 131 -31 3 -36 8 -48 45 -13 37 -58 88 -105 118
-14 8 8 37 128 175 191 218 296 340 292 340 -2 0 -116 -112 -253 -250z"/>
<path d="M2330 3145 c-26 -32 13 -81 48 -59 34 22 22 74 -18 74 -10 0 -23 -7
-30 -15z"/>
<path d="M1560 2155 l0 -205 45 0 45 0 0 125 c0 69 3 125 8 125 4 0 56 -56
116 -125 99 -113 112 -125 143 -125 l33 0 0 205 0 205 -45 0 -45 0 0 -120 c0
-66 -4 -120 -9 -120 -5 0 -57 54 -115 120 -98 110 -110 120 -141 120 l-35 0 0
-205z"/>
<path d="M2072 2240 c-47 -29 -72 -76 -72 -135 0 -59 25 -106 72 -135 39 -24
115 -27 144 -5 25 19 34 19 34 0 0 -11 11 -15 40 -15 l40 0 0 155 0 155 -40 0
c-29 0 -40 -4 -40 -15 0 -18 -8 -18 -40 0 -36 21 -99 18 -138 -5z m148 -80
c12 -12 20 -33 20 -55 0 -22 -8 -43 -20 -55 -12 -12 -33 -20 -55 -20 -22 0
-43 8 -55 20 -12 12 -20 33 -20 55 0 22 8 43 20 55 12 12 33 20 55 20 22 0 43
-8 55 -20z"/>
<path d="M2450 2253 c-36 -13 -60 -47 -60 -83 0 -47 29 -75 95 -91 63 -15 84
-32 65 -53 -17 -22 -53 -20 -75 4 -12 13 -31 20 -57 20 -47 0 -50 -17 -9 -62
25 -28 36 -32 91 -36 48 -4 71 0 96 13 54 29 66 106 23 142 -8 6 -41 19 -74
28 -72 20 -83 29 -65 50 16 19 44 19 60 0 8 -9 29 -15 56 -15 41 0 43 1 35 23
-13 37 -68 67 -120 66 -25 0 -53 -3 -61 -6z"/>
<path d="M3620 2081 c0 -72 2 -131 4 -131 2 0 54 29 115 64 l112 64 -83 47
c-46 26 -98 56 -115 67 l-33 20 0 -131z"/>
<path d="M2714 2088 c-15 -46 -29 -89 -32 -96 -3 -10 2 -13 18 -10 18 2 27 15
40 53 l17 50 12 -40 c6 -22 11 -46 11 -52 0 -29 27 -10 58 39 l32 53 0 -53 c0
-44 3 -52 19 -52 15 0 19 11 24 68 11 109 10 122 -12 122 -13 0 -32 -21 -58
-62 l-38 -63 -14 63 c-21 91 -42 86 -77 -20z"/>
<path d="M3005 2158 c-59 -32 -74 -110 -30 -153 55 -56 159 -15 172 67 5 32 1
41 -25 68 -33 32 -79 40 -117 18z m83 -40 c17 -17 15 -58 -5 -80 -31 -34 -93
-13 -93 33 0 43 68 77 98 47z"/>
<path d="M3173 2148 c3 -12 11 -56 18 -95 10 -64 15 -73 33 -73 13 0 27 11 37
28 9 16 33 59 53 95 l38 67 -26 0 c-21 0 -31 -10 -58 -62 l-32 -63 -11 60 c-9
52 -14 60 -34 63 -20 3 -23 0 -18 -20z"/>
<path d="M3360 2113 c-7 -32 -15 -75 -20 -95 -7 -35 -6 -38 15 -38 20 0 24 8
39 83 20 103 20 107 -3 107 -16 0 -22 -11 -31 -57z"/>
<path d="M3450 2166 c0 -2 -7 -40 -15 -83 -21 -109 -24 -103 45 -103 53 0 60
2 60 20 0 16 -7 20 -35 20 -28 0 -35 4 -35 20 0 17 7 20 40 20 29 0 40 4 40
15 0 10 -10 15 -29 15 -56 0 -48 36 9 42 24 2 36 9 38 21 3 15 -5 17 -57 17
-34 0 -61 -2 -61 -4z"/>
<path d="M1329 1824 c-17 -21 0 -49 31 -49 31 0 48 28 31 49 -8 9 -21 16 -31
16 -10 0 -23 -7 -31 -16z m56 -19 c0 -22 -31 -33 -47 -17 -17 17 -1 44 24 40
15 -2 23 -10 23 -23z"/>
<path d="M1491 1819 c-1 -30 22 -54 44 -45 10 3 14 17 13 38 l-1 33 -4 -33
c-5 -42 -35 -40 -44 3 -6 29 -7 29 -8 4z"/>
<path d="M1650 1803 c0 -28 3 -34 10 -23 7 12 13 13 28 4 16 -10 18 -8 17 20
0 26 -4 31 -27 34 -26 3 -28 1 -28 -35z m50 12 c0 -8 -9 -15 -20 -15 -11 0
-20 7 -20 15 0 8 9 15 20 15 11 0 20 -7 20 -15z"/>
<path d="M1958 1833 c27 -6 29 -30 2 -36 -17 -4 -16 -4 2 -3 34 2 32 40 -2 43
-22 1 -22 1 -2 -4z"/>
<path d="M2092 1808 c-2 -34 1 -38 21 -37 15 1 17 3 5 6 -10 2 -18 17 -21 36
-4 31 -4 31 -5 -5z"/>
<path d="M2240 1829 c0 -5 5 -7 10 -4 6 3 10 8 10 11 0 2 -4 4 -10 4 -5 0 -10
-5 -10 -11z"/>
<path d="M2380 1823 c6 -13 15 -23 20 -23 5 0 14 10 20 23 11 21 10 21 -4 3
-16 -20 -16 -20 -32 0 -14 18 -15 18 -4 -3z"/>
<path d="M2522 1808 c-2 -35 0 -38 26 -37 22 1 23 2 5 6 -16 3 -23 13 -26 36
-4 31 -4 31 -5 -5z"/>
<path d="M2663 1805 c0 -22 2 -30 4 -17 2 12 2 30 0 40 -3 9 -5 -1 -4 -23z"/>
<path d="M2917 1832 c6 -4 13 -21 16 -37 l4 -30 2 32 c0 17 7 34 14 36 6 3 -1
6 -18 6 -16 0 -25 -3 -18 -7z"/>
<path d="M3176 1827 c3 -10 9 -15 12 -12 3 3 0 11 -7 18 -10 9 -11 8 -5 -6z"/>
<path d="M3333 1805 c0 -22 2 -30 4 -17 2 12 2 30 0 40 -3 9 -5 -1 -4 -23z"/>
<path d="M3440 1804 c0 -32 2 -35 26 -32 56 6 53 68 -2 68 -21 0 -24 -5 -24
-36z m55 1 c0 -13 -8 -21 -22 -23 -19 -3 -23 1 -23 23 0 22 4 26 23 23 14 -2
22 -10 22 -23z"/>
<path d="M3600 1805 c0 -32 2 -35 28 -34 23 2 24 2 5 6 -13 2 -23 8 -23 13 0
5 10 11 23 13 l22 4 -22 2 c-13 0 -23 5 -23 10 0 5 10 12 23 14 19 4 18 4 -5
6 -26 1 -28 -2 -28 -34z"/>
<path d="M3756 1831 c-3 -4 6 -6 19 -3 14 2 25 6 25 8 0 8 -39 4 -44 -5z"/>
<path d="M1193 1801 c9 -25 13 -28 16 -15 2 11 8 26 15 34 9 13 9 13 -5 3 -12
-10 -18 -10 -27 -1 -8 8 -8 2 1 -21z"/>
<path d="M2260 1811 c0 -7 -6 -11 -14 -8 -14 6 -32 -21 -21 -31 3 -3 5 0 5 6
0 16 33 15 49 0 11 -11 11 -9 1 12 -16 32 -20 36 -20 21z"/>
<path d="M2775 1810 c3 -6 13 -10 21 -10 21 0 17 -18 -6 -23 -17 -4 -16 -4 2
-3 30 1 30 26 0 37 -15 6 -21 5 -17 -1z"/>
<path d="M3807 1801 c-5 -19 -11 -23 -31 -19 -14 3 -23 1 -20 -3 15 -25 71 5
62 33 -3 7 -7 2 -11 -11z"/>
<path d="M3197 1783 c3 -7 9 -10 14 -7 14 8 11 21 -5 21 -8 0 -12 -6 -9 -14z"/>
<path d="M2016 1691 c-3 -4 6 -6 19 -3 14 2 25 6 25 8 0 8 -39 4 -44 -5z"/>
<path d="M2162 1665 c0 -22 2 -32 5 -23 2 9 16 19 31 21 l27 4 -27 2 c-16 0
-28 8 -31 19 -3 9 -5 -1 -5 -23z"/>
<path d="M2340 1689 c0 -5 5 -7 10 -4 6 3 10 8 10 11 0 2 -4 4 -10 4 -5 0 -10
-5 -10 -11z"/>
<path d="M2482 1665 c1 -29 2 -32 5 -13 l4 28 24 -28 24 -27 -1 40 c-1 32 -2
34 -5 11 l-5 -29 -23 29 -24 29 1 -40z"/>
<path d="M2641 1663 c2 -32 3 -33 6 -10 4 25 7 27 21 15 12 -9 12 -7 -2 10
-11 12 -21 22 -23 22 -1 0 -2 -17 -2 -37z"/>
<path d="M2688 1670 c-3 -17 -1 -33 4 -36 4 -3 8 11 8 30 0 44 -6 47 -12 6z"/>
<path d="M2800 1665 c0 -32 2 -35 28 -34 23 2 24 2 5 6 -13 2 -23 8 -23 13 0
5 10 11 23 13 l22 4 -22 2 c-13 0 -23 5 -23 10 0 5 10 12 23 14 19 4 18 4 -5
6 -26 1 -28 -2 -28 -34z"/>
<path d="M2952 1668 c-2 -35 0 -38 26 -37 22 1 23 2 5 6 -16 3 -23 13 -26 36
-4 31 -4 31 -5 -5z"/>
<path d="M2360 1671 c0 -7 -6 -11 -14 -8 -14 6 -32 -21 -21 -31 3 -3 5 0 5 6
0 16 33 15 49 0 11 -11 11 -9 1 12 -16 32 -20 36 -20 21z"/>
<path d="M2013 1650 c2 -8 14 -16 28 -17 19 -1 20 -1 4 4 -11 3 -24 10 -28 17
-6 7 -7 6 -4 -4z"/>
</g>
</svg>
