<svg xmlns="http://www.w3.org/2000/svg" xmlns:xlink="http://www.w3.org/1999/xlink" width="1366" zoomAndPan="magnify" viewBox="0 0 1024.5 576" height="768" preserveAspectRatio="xMidYMid meet" version="1.0"><defs><g/><clipPath id="df34950303"><path d="M 695.542969 334.0625 L 736.835938 334.0625 L 736.835938 381.320312 L 695.542969 381.320312 Z M 695.542969 334.0625 " clip-rule="nonzero"/></clipPath><clipPath id="9d7cd5bfb6"><path d="M 736.835938 357.65625 L 695.542969 381.253906 L 695.542969 334.0625 Z M 736.835938 357.65625 " clip-rule="nonzero"/></clipPath><clipPath id="e7e9b0e8e9"><path d="M 362.050781 265 L 703.882812 265 L 703.882812 304.035156 L 362.050781 304.035156 Z M 362.050781 265 " clip-rule="nonzero"/></clipPath><clipPath id="baa4e87897"><path d="M 627 138.367188 L 642 138.367188 L 642 153 L 627 153 Z M 627 138.367188 " clip-rule="nonzero"/></clipPath></defs><g clip-path="url(#df34950303)"><g clip-path="url(#9d7cd5bfb6)"><path fill="#fc5909" d="M 736.835938 334.0625 L 736.835938 381.320312 L 695.542969 381.320312 L 695.542969 334.0625 Z M 736.835938 334.0625 " fill-opacity="1" fill-rule="nonzero"/></g></g><g clip-path="url(#e7e9b0e8e9)"><path fill="#393536" d="M 532.949219 279.964844 C 597.675781 279.964844 657.128906 288.980469 703.859375 304.039062 C 669.042969 280.871094 605.53125 265.367188 532.949219 265.367188 C 460.371094 265.367188 396.859375 280.871094 362.042969 304.039062 C 408.777344 288.980469 468.226562 279.964844 532.949219 279.964844 " fill-opacity="1" fill-rule="nonzero"/></g><path fill="#393536" d="M 541.496094 238.199219 C 559.574219 238.199219 574.234375 252.878906 574.234375 271 L 508.753906 271 C 508.753906 252.878906 523.410156 238.199219 541.496094 238.199219 " fill-opacity="1" fill-rule="nonzero"/><path fill="#393536" d="M 541.496094 238.199219 L 488.742188 185.34375 L 541.496094 251.9375 Z M 541.496094 238.199219 " fill-opacity="1" fill-rule="nonzero"/><path fill="#393536" d="M 541.496094 238.199219 L 634.285156 145.226562 L 541.496094 251.9375 Z M 541.496094 238.199219 " fill-opacity="1" fill-rule="nonzero"/><path fill="#393536" d="M 481.890625 185.34375 C 481.890625 189.132812 484.957031 192.207031 488.742188 192.207031 C 492.523438 192.207031 495.59375 189.132812 495.59375 185.34375 C 495.59375 181.550781 492.523438 178.476562 488.742188 178.476562 C 484.957031 178.476562 481.890625 181.550781 481.890625 185.34375 " fill-opacity="1" fill-rule="nonzero"/><g clip-path="url(#baa4e87897)"><path fill="#393536" d="M 627.433594 145.226562 C 627.433594 149.019531 630.5 152.09375 634.285156 152.09375 C 638.070312 152.09375 641.136719 149.019531 641.136719 145.226562 C 641.136719 141.4375 638.070312 138.363281 634.285156 138.363281 C 630.5 138.363281 627.433594 141.4375 627.433594 145.226562 " fill-opacity="1" fill-rule="nonzero"/></g><g fill="#fcc509" fill-opacity="0.4"><g transform="translate(348.314374, 378.099704)"><g><path d="M 56.4375 -27.328125 L 56.4375 -68.828125 L 72.953125 -68.828125 L 72.953125 0 L 60.96875 0 L 24.578125 -41.296875 L 24.578125 0 L 8.0625 0 L 8.0625 -68.828125 L 19.953125 -68.828125 Z M 56.4375 -27.328125 "/></g></g></g><g fill="#fcc509" fill-opacity="0.4"><g transform="translate(425.385403, 378.099704)"><g><path d="M 44.15625 -51.125 L 59.296875 -51.125 L 59.296875 0 L 44.15625 0 L 44.15625 -5.015625 C 40.351562 -0.816406 35.007812 1.28125 28.125 1.28125 C 23.925781 1.28125 19.890625 0.179688 16.015625 -2.015625 C 12.148438 -4.210938 9.003906 -7.359375 6.578125 -11.453125 C 4.160156 -15.546875 2.953125 -20.25 2.953125 -25.5625 C 2.953125 -30.875 4.160156 -35.578125 6.578125 -39.671875 C 9.003906 -43.773438 12.148438 -46.921875 16.015625 -49.109375 C 19.890625 -51.304688 23.925781 -52.40625 28.125 -52.40625 C 34.9375 -52.40625 40.28125 -50.304688 44.15625 -46.109375 Z M 31.46875 -13.28125 C 35.007812 -13.28125 37.941406 -14.441406 40.265625 -16.765625 C 42.585938 -19.085938 43.75 -22.019531 43.75 -25.5625 C 43.75 -29.101562 42.585938 -32.035156 40.265625 -34.359375 C 37.941406 -36.691406 35.007812 -37.859375 31.46875 -37.859375 C 27.925781 -37.859375 24.988281 -36.691406 22.65625 -34.359375 C 20.332031 -32.035156 19.171875 -29.101562 19.171875 -25.5625 C 19.171875 -22.019531 20.332031 -19.085938 22.65625 -16.765625 C 24.988281 -14.441406 27.925781 -13.28125 31.46875 -13.28125 Z M 31.46875 -13.28125 "/></g></g></g><g fill="#fcc509" fill-opacity="0.4"><g transform="translate(487.120717, 378.099704)"><g><path d="M 27.53125 1.28125 C 22.875 1.28125 18.804688 0.507812 15.328125 -1.03125 C 11.859375 -2.570312 9.125 -4.6875 7.125 -7.375 C 5.125 -10.0625 3.992188 -13.078125 3.734375 -16.421875 L 19.265625 -16.421875 C 19.460938 -14.847656 20.265625 -13.535156 21.671875 -12.484375 C 23.085938 -11.441406 25.007812 -10.921875 27.4375 -10.921875 C 29.53125 -10.921875 31.148438 -11.265625 32.296875 -11.953125 C 33.441406 -12.640625 34.015625 -13.671875 34.015625 -15.046875 C 34.015625 -16.421875 33.242188 -17.453125 31.703125 -18.140625 C 30.171875 -18.828125 27.765625 -19.5 24.484375 -20.15625 C 20.546875 -21.007812 17.28125 -21.941406 14.6875 -22.953125 C 12.101562 -23.972656 9.859375 -25.613281 7.953125 -27.875 C 6.054688 -30.132812 5.109375 -33.234375 5.109375 -37.171875 C 5.109375 -40.054688 6.023438 -42.644531 7.859375 -44.9375 C 9.703125 -47.226562 12.257812 -49.046875 15.53125 -50.390625 C 18.8125 -51.734375 22.515625 -52.40625 26.640625 -52.40625 C 30.441406 -52.40625 33.960938 -51.679688 37.203125 -50.234375 C 40.453125 -48.796875 43.09375 -46.765625 45.125 -44.140625 C 47.164062 -41.523438 48.28125 -38.578125 48.46875 -35.296875 L 33.140625 -35.296875 C 33.003906 -36.804688 32.328125 -38.019531 31.109375 -38.9375 C 29.898438 -39.851562 28.316406 -40.3125 26.359375 -40.3125 C 24.585938 -40.3125 23.222656 -40.015625 22.265625 -39.421875 C 21.316406 -38.835938 20.84375 -37.988281 20.84375 -36.875 C 20.84375 -35.5625 21.578125 -34.59375 23.046875 -33.96875 C 24.523438 -33.34375 26.9375 -32.640625 30.28125 -31.859375 C 34.21875 -31.003906 37.476562 -30.082031 40.0625 -29.09375 C 42.65625 -28.113281 44.898438 -26.523438 46.796875 -24.328125 C 48.703125 -22.140625 49.65625 -19.144531 49.65625 -15.34375 C 49.65625 -10.164062 47.65625 -6.097656 43.65625 -3.140625 C 39.65625 -0.191406 34.28125 1.28125 27.53125 1.28125 Z M 27.53125 1.28125 "/></g></g></g><g fill="#fc5909" fill-opacity="1"><g transform="translate(348.314374, 378.099704)"><g><path d="M 56.4375 -27.328125 L 56.4375 -68.828125 L 72.953125 -68.828125 L 72.953125 0 L 60.96875 0 L 24.578125 -41.296875 L 24.578125 0 L 8.0625 0 L 8.0625 -68.828125 L 19.953125 -68.828125 Z M 56.4375 -27.328125 "/></g></g></g><g fill="#fc5909" fill-opacity="1"><g transform="translate(425.385403, 378.099704)"><g><path d="M 44.15625 -51.125 L 59.296875 -51.125 L 59.296875 0 L 44.15625 0 L 44.15625 -5.015625 C 40.351562 -0.816406 35.007812 1.28125 28.125 1.28125 C 23.925781 1.28125 19.890625 0.179688 16.015625 -2.015625 C 12.148438 -4.210938 9.003906 -7.359375 6.578125 -11.453125 C 4.160156 -15.546875 2.953125 -20.25 2.953125 -25.5625 C 2.953125 -30.875 4.160156 -35.578125 6.578125 -39.671875 C 9.003906 -43.773438 12.148438 -46.921875 16.015625 -49.109375 C 19.890625 -51.304688 23.925781 -52.40625 28.125 -52.40625 C 34.9375 -52.40625 40.28125 -50.304688 44.15625 -46.109375 Z M 31.46875 -13.28125 C 35.007812 -13.28125 37.941406 -14.441406 40.265625 -16.765625 C 42.585938 -19.085938 43.75 -22.019531 43.75 -25.5625 C 43.75 -29.101562 42.585938 -32.035156 40.265625 -34.359375 C 37.941406 -36.691406 35.007812 -37.859375 31.46875 -37.859375 C 27.925781 -37.859375 24.988281 -36.691406 22.65625 -34.359375 C 20.332031 -32.035156 19.171875 -29.101562 19.171875 -25.5625 C 19.171875 -22.019531 20.332031 -19.085938 22.65625 -16.765625 C 24.988281 -14.441406 27.925781 -13.28125 31.46875 -13.28125 Z M 31.46875 -13.28125 "/></g></g></g><g fill="#fc5909" fill-opacity="1"><g transform="translate(487.120717, 378.099704)"><g><path d="M 27.53125 1.28125 C 22.875 1.28125 18.804688 0.507812 15.328125 -1.03125 C 11.859375 -2.570312 9.125 -4.6875 7.125 -7.375 C 5.125 -10.0625 3.992188 -13.078125 3.734375 -16.421875 L 19.265625 -16.421875 C 19.460938 -14.847656 20.265625 -13.535156 21.671875 -12.484375 C 23.085938 -11.441406 25.007812 -10.921875 27.4375 -10.921875 C 29.53125 -10.921875 31.148438 -11.265625 32.296875 -11.953125 C 33.441406 -12.640625 34.015625 -13.671875 34.015625 -15.046875 C 34.015625 -16.421875 33.242188 -17.453125 31.703125 -18.140625 C 30.171875 -18.828125 27.765625 -19.5 24.484375 -20.15625 C 20.546875 -21.007812 17.28125 -21.941406 14.6875 -22.953125 C 12.101562 -23.972656 9.859375 -25.613281 7.953125 -27.875 C 6.054688 -30.132812 5.109375 -33.234375 5.109375 -37.171875 C 5.109375 -40.054688 6.023438 -42.644531 7.859375 -44.9375 C 9.703125 -47.226562 12.257812 -49.046875 15.53125 -50.390625 C 18.8125 -51.734375 22.515625 -52.40625 26.640625 -52.40625 C 30.441406 -52.40625 33.960938 -51.679688 37.203125 -50.234375 C 40.453125 -48.796875 43.09375 -46.765625 45.125 -44.140625 C 47.164062 -41.523438 48.28125 -38.578125 48.46875 -35.296875 L 33.140625 -35.296875 C 33.003906 -36.804688 32.328125 -38.019531 31.109375 -38.9375 C 29.898438 -39.851562 28.316406 -40.3125 26.359375 -40.3125 C 24.585938 -40.3125 23.222656 -40.015625 22.265625 -39.421875 C 21.316406 -38.835938 20.84375 -37.988281 20.84375 -36.875 C 20.84375 -35.5625 21.578125 -34.59375 23.046875 -33.96875 C 24.523438 -33.34375 26.9375 -32.640625 30.28125 -31.859375 C 34.21875 -31.003906 37.476562 -30.082031 40.0625 -29.09375 C 42.65625 -28.113281 44.898438 -26.523438 46.796875 -24.328125 C 48.703125 -22.140625 49.65625 -19.144531 49.65625 -15.34375 C 49.65625 -10.164062 47.65625 -6.097656 43.65625 -3.140625 C 39.65625 -0.191406 34.28125 1.28125 27.53125 1.28125 Z M 27.53125 1.28125 "/></g></g></g><g fill="#3b3f3f" fill-opacity="1"><g transform="translate(541.032386, 372.945393)"><g><path d="M 21.65625 -11.59375 L 33.828125 -31.1875 L 40.734375 -31.1875 L 39.21875 0 L 31.6875 0 L 32.625 -17.421875 L 21.796875 0 L 17.640625 0 L 13.59375 -17.46875 L 7.703125 0 L 0 0 L 10.609375 -31.1875 L 17.109375 -31.1875 Z M 21.65625 -11.59375 "/></g></g></g><g fill="#3b3f3f" fill-opacity="1"><g transform="translate(582.953627, 372.945393)"><g><path d="M 18 0.578125 C 15.125 0.578125 12.503906 -0.03125 10.140625 -1.25 C 7.773438 -2.46875 5.910156 -4.191406 4.546875 -6.421875 C 3.179688 -8.648438 2.5 -11.203125 2.5 -14.078125 C 2.5 -17.171875 3.285156 -20.078125 4.859375 -22.796875 C 6.429688 -25.515625 8.597656 -27.6875 11.359375 -29.3125 C 14.117188 -30.945312 17.222656 -31.765625 20.671875 -31.765625 C 23.585938 -31.765625 26.222656 -31.15625 28.578125 -29.9375 C 30.941406 -28.726562 32.804688 -27.007812 34.171875 -24.78125 C 35.546875 -22.550781 36.234375 -19.992188 36.234375 -17.109375 C 36.234375 -14.023438 35.441406 -11.125 33.859375 -8.40625 C 32.285156 -5.6875 30.109375 -3.507812 27.328125 -1.875 C 24.554688 -0.238281 21.445312 0.578125 18 0.578125 Z M 18.40625 -6.546875 C 20.300781 -6.546875 22 -7.019531 23.5 -7.96875 C 25 -8.925781 26.164062 -10.191406 27 -11.765625 C 27.832031 -13.335938 28.25 -14.988281 28.25 -16.71875 C 28.25 -18.195312 27.9375 -19.535156 27.3125 -20.734375 C 26.6875 -21.941406 25.769531 -22.894531 24.5625 -23.59375 C 23.363281 -24.289062 21.953125 -24.640625 20.328125 -24.640625 C 18.421875 -24.640625 16.71875 -24.164062 15.21875 -23.21875 C 13.71875 -22.269531 12.550781 -21.015625 11.71875 -19.453125 C 10.882812 -17.890625 10.46875 -16.234375 10.46875 -14.484375 C 10.46875 -12.992188 10.78125 -11.644531 11.40625 -10.4375 C 12.03125 -9.238281 12.941406 -8.289062 14.140625 -7.59375 C 15.347656 -6.894531 16.769531 -6.546875 18.40625 -6.546875 Z M 18.40625 -6.546875 "/></g></g></g><g fill="#3b3f3f" fill-opacity="1"><g transform="translate(618.326008, 372.945393)"><g><path d="M 15.15625 -10.421875 L 26.109375 -31.1875 L 34.71875 -31.1875 L 17.15625 0 L 9.890625 0 L 4.28125 -31.1875 L 12.171875 -31.1875 Z M 15.15625 -10.421875 "/></g></g></g><g fill="#3b3f3f" fill-opacity="1"><g transform="translate(647.906874, 372.945393)"><g><path d="M 9.453125 0 L 1.65625 0 L 7.625 -31.1875 L 15.421875 -31.1875 Z M 9.453125 0 "/></g></g></g><g fill="#3b3f3f" fill-opacity="1"><g transform="translate(661.672479, 372.945393)"><g><path d="M 27.578125 -31.1875 L 26.34375 -24.546875 L 13.953125 -24.546875 L 12.921875 -19.15625 L 24.828125 -19.15625 L 23.625 -12.703125 L 11.671875 -12.703125 L 10.515625 -6.640625 L 23.34375 -6.640625 L 22.0625 0 L 1.421875 0 L 7.390625 -31.1875 Z M 27.578125 -31.1875 "/></g></g></g><g fill="#3b3f3f" fill-opacity="1"><g transform="translate(321.765872, 407.35827)"><g><path d="M 5.984375 -4.09375 L 5.984375 0 L 4.75 0 L 4.75 -4.09375 L 0.015625 -11.828125 L 1.34375 -11.828125 L 5.40625 -5.1875 L 9.453125 -11.828125 L 10.703125 -11.828125 Z M 5.984375 -4.09375 "/></g></g></g><g fill="#3b3f3f" fill-opacity="1"><g transform="translate(345.534798, 407.35827)"><g><path d="M 7.09375 0.09375 C 5.925781 0.09375 4.863281 -0.164062 3.90625 -0.6875 C 2.957031 -1.207031 2.210938 -1.921875 1.671875 -2.828125 C 1.140625 -3.742188 0.875 -4.769531 0.875 -5.90625 C 0.875 -7.050781 1.140625 -8.078125 1.671875 -8.984375 C 2.210938 -9.898438 2.957031 -10.617188 3.90625 -11.140625 C 4.863281 -11.660156 5.925781 -11.921875 7.09375 -11.921875 C 8.257812 -11.921875 9.3125 -11.660156 10.25 -11.140625 C 11.195312 -10.628906 11.941406 -9.914062 12.484375 -9 C 13.023438 -8.082031 13.296875 -7.050781 13.296875 -5.90625 C 13.296875 -4.769531 13.023438 -3.742188 12.484375 -2.828125 C 11.941406 -1.910156 11.195312 -1.191406 10.25 -0.671875 C 9.3125 -0.160156 8.257812 0.09375 7.09375 0.09375 Z M 7.09375 -1.015625 C 8.03125 -1.015625 8.875 -1.222656 9.625 -1.640625 C 10.382812 -2.066406 10.976562 -2.65625 11.40625 -3.40625 C 11.832031 -4.15625 12.046875 -4.988281 12.046875 -5.90625 C 12.046875 -6.832031 11.832031 -7.671875 11.40625 -8.421875 C 10.976562 -9.171875 10.382812 -9.753906 9.625 -10.171875 C 8.875 -10.597656 8.03125 -10.8125 7.09375 -10.8125 C 6.15625 -10.8125 5.304688 -10.597656 4.546875 -10.171875 C 3.785156 -9.753906 3.1875 -9.171875 2.75 -8.421875 C 2.320312 -7.671875 2.109375 -6.832031 2.109375 -5.90625 C 2.109375 -4.988281 2.320312 -4.15625 2.75 -3.40625 C 3.1875 -2.65625 3.785156 -2.066406 4.546875 -1.640625 C 5.304688 -1.222656 6.15625 -1.015625 7.09375 -1.015625 Z M 7.09375 -1.015625 "/></g></g></g><g fill="#3b3f3f" fill-opacity="1"><g transform="translate(372.745633, 407.35827)"><g><path d="M 6.6875 0.09375 C 5.15625 0.09375 3.960938 -0.34375 3.109375 -1.21875 C 2.253906 -2.09375 1.828125 -3.367188 1.828125 -5.046875 L 1.828125 -11.828125 L 3.078125 -11.828125 L 3.078125 -5.09375 C 3.078125 -3.726562 3.382812 -2.707031 4 -2.03125 C 4.625 -1.351562 5.519531 -1.015625 6.6875 -1.015625 C 7.875 -1.015625 8.773438 -1.351562 9.390625 -2.03125 C 10.003906 -2.707031 10.3125 -3.726562 10.3125 -5.09375 L 10.3125 -11.828125 L 11.53125 -11.828125 L 11.53125 -5.046875 C 11.53125 -3.367188 11.101562 -2.09375 10.25 -1.21875 C 9.40625 -0.34375 8.21875 0.09375 6.6875 0.09375 Z M 6.6875 0.09375 "/></g></g></g><g fill="#3b3f3f" fill-opacity="1"><g transform="translate(399.163483, 407.35827)"><g><path d="M 10 0 L 7.296875 -3.796875 C 6.992188 -3.765625 6.675781 -3.75 6.34375 -3.75 L 3.171875 -3.75 L 3.171875 0 L 1.921875 0 L 1.921875 -11.828125 L 6.34375 -11.828125 C 7.851562 -11.828125 9.035156 -11.460938 9.890625 -10.734375 C 10.753906 -10.015625 11.1875 -9.023438 11.1875 -7.765625 C 11.1875 -6.847656 10.953125 -6.066406 10.484375 -5.421875 C 10.015625 -4.785156 9.347656 -4.328125 8.484375 -4.046875 L 11.375 0 Z M 6.3125 -4.8125 C 7.488281 -4.8125 8.382812 -5.070312 9 -5.59375 C 9.625 -6.113281 9.9375 -6.835938 9.9375 -7.765625 C 9.9375 -8.722656 9.625 -9.457031 9 -9.96875 C 8.382812 -10.488281 7.488281 -10.75 6.3125 -10.75 L 3.171875 -10.75 L 3.171875 -4.8125 Z M 6.3125 -4.8125 "/></g></g></g><g fill="#3b3f3f" fill-opacity="1"><g transform="translate(424.417141, 407.35827)"><g><path d="M 0 0 L 8.4375 0 L 8.4375 0.8125 L 0 0.8125 Z M 0 0 "/></g></g></g><g fill="#3b3f3f" fill-opacity="1"><g transform="translate(445.908335, 407.35827)"><g><path d="M 6.34375 -11.828125 C 7.851562 -11.828125 9.035156 -11.460938 9.890625 -10.734375 C 10.753906 -10.015625 11.1875 -9.023438 11.1875 -7.765625 C 11.1875 -6.503906 10.753906 -5.515625 9.890625 -4.796875 C 9.035156 -4.085938 7.851562 -3.734375 6.34375 -3.734375 L 3.171875 -3.734375 L 3.171875 0 L 1.921875 0 L 1.921875 -11.828125 Z M 6.3125 -4.828125 C 7.488281 -4.828125 8.382812 -5.082031 9 -5.59375 C 9.625 -6.113281 9.9375 -6.835938 9.9375 -7.765625 C 9.9375 -8.722656 9.625 -9.457031 9 -9.96875 C 8.382812 -10.488281 7.488281 -10.75 6.3125 -10.75 L 3.171875 -10.75 L 3.171875 -4.828125 Z M 6.3125 -4.828125 "/></g></g></g><g fill="#3b3f3f" fill-opacity="1"><g transform="translate(471.077639, 407.35827)"><g><path d="M 1.921875 -11.828125 L 3.171875 -11.828125 L 3.171875 -1.078125 L 9.796875 -1.078125 L 9.796875 0 L 1.921875 0 Z M 1.921875 -11.828125 "/></g></g></g><g fill="#3b3f3f" fill-opacity="1"><g transform="translate(494.070463, 407.35827)"><g><path d="M 9.34375 -3.15625 L 2.75 -3.15625 L 1.328125 0 L 0.03125 0 L 5.4375 -11.828125 L 6.671875 -11.828125 L 12.078125 0 L 10.765625 0 Z M 8.890625 -4.171875 L 6.046875 -10.515625 L 3.203125 -4.171875 Z M 8.890625 -4.171875 "/></g></g></g><g fill="#3b3f3f" fill-opacity="1"><g transform="translate(519.222912, 407.35827)"><g><path d="M 5.984375 -4.09375 L 5.984375 0 L 4.75 0 L 4.75 -4.09375 L 0.015625 -11.828125 L 1.34375 -11.828125 L 5.40625 -5.1875 L 9.453125 -11.828125 L 10.703125 -11.828125 Z M 5.984375 -4.09375 "/></g></g></g><g fill="#3b3f3f" fill-opacity="1"><g transform="translate(542.991844, 407.35827)"><g><path d="M 1.921875 -11.828125 L 3.171875 -11.828125 L 3.171875 -1.078125 L 9.796875 -1.078125 L 9.796875 0 L 1.921875 0 Z M 1.921875 -11.828125 "/></g></g></g><g fill="#3b3f3f" fill-opacity="1"><g transform="translate(565.984667, 407.35827)"><g><path d="M 1.921875 -11.828125 L 3.171875 -11.828125 L 3.171875 0 L 1.921875 0 Z M 1.921875 -11.828125 "/></g></g></g><g fill="#3b3f3f" fill-opacity="1"><g transform="translate(584.135188, 407.35827)"><g><path d="M 5.1875 0.09375 C 4.3125 0.09375 3.46875 -0.046875 2.65625 -0.328125 C 1.851562 -0.609375 1.234375 -0.976562 0.796875 -1.4375 L 1.28125 -2.40625 C 1.707031 -1.96875 2.273438 -1.617188 2.984375 -1.359375 C 3.691406 -1.097656 4.425781 -0.96875 5.1875 -0.96875 C 6.238281 -0.96875 7.03125 -1.160156 7.5625 -1.546875 C 8.09375 -1.929688 8.359375 -2.4375 8.359375 -3.0625 C 8.359375 -3.53125 8.210938 -3.90625 7.921875 -4.1875 C 7.640625 -4.46875 7.289062 -4.679688 6.875 -4.828125 C 6.457031 -4.984375 5.878906 -5.15625 5.140625 -5.34375 C 4.242188 -5.5625 3.53125 -5.773438 3 -5.984375 C 2.476562 -6.191406 2.023438 -6.507812 1.640625 -6.9375 C 1.265625 -7.363281 1.078125 -7.945312 1.078125 -8.6875 C 1.078125 -9.28125 1.234375 -9.820312 1.546875 -10.3125 C 1.867188 -10.800781 2.351562 -11.191406 3 -11.484375 C 3.65625 -11.773438 4.46875 -11.921875 5.4375 -11.921875 C 6.113281 -11.921875 6.773438 -11.828125 7.421875 -11.640625 C 8.066406 -11.460938 8.628906 -11.207031 9.109375 -10.875 L 8.6875 -9.875 C 8.1875 -10.207031 7.65625 -10.453125 7.09375 -10.609375 C 6.53125 -10.773438 5.976562 -10.859375 5.4375 -10.859375 C 4.40625 -10.859375 3.625 -10.65625 3.09375 -10.25 C 2.570312 -9.851562 2.3125 -9.34375 2.3125 -8.71875 C 2.3125 -8.238281 2.453125 -7.851562 2.734375 -7.5625 C 3.023438 -7.28125 3.382812 -7.0625 3.8125 -6.90625 C 4.25 -6.757812 4.835938 -6.597656 5.578125 -6.421875 C 6.441406 -6.203125 7.140625 -5.988281 7.671875 -5.78125 C 8.210938 -5.570312 8.664062 -5.253906 9.03125 -4.828125 C 9.40625 -4.410156 9.59375 -3.84375 9.59375 -3.125 C 9.59375 -2.53125 9.429688 -1.988281 9.109375 -1.5 C 8.785156 -1.007812 8.289062 -0.617188 7.625 -0.328125 C 6.96875 -0.046875 6.15625 0.09375 5.1875 0.09375 Z M 5.1875 0.09375 "/></g></g></g><g fill="#3b3f3f" fill-opacity="1"><g transform="translate(607.566683, 407.35827)"><g><path d="M 4.21875 -10.75 L 0.0625 -10.75 L 0.0625 -11.828125 L 9.625 -11.828125 L 9.625 -10.75 L 5.46875 -10.75 L 5.46875 0 L 4.21875 0 Z M 4.21875 -10.75 "/></g></g></g><g fill="#3b3f3f" fill-opacity="1"><g transform="translate(630.306408, 407.35827)"><g><path d="M 0 0 L 8.4375 0 L 8.4375 0.8125 L 0 0.8125 Z M 0 0 "/></g></g></g><g fill="#3b3f3f" fill-opacity="1"><g transform="translate(651.797603, 407.35827)"><g><path d="M 11.75 -11.828125 L 6.515625 0 L 5.28125 0 L 0.046875 -11.828125 L 1.40625 -11.828125 L 5.921875 -1.546875 L 10.484375 -11.828125 Z M 11.75 -11.828125 "/></g></g></g><g fill="#3b3f3f" fill-opacity="1"><g transform="translate(676.62945, 407.35827)"><g><path d="M 1.921875 -11.828125 L 3.171875 -11.828125 L 3.171875 0 L 1.921875 0 Z M 1.921875 -11.828125 "/></g></g></g><g fill="#3b3f3f" fill-opacity="1"><g transform="translate(694.779971, 407.35827)"><g><path d="M 1.921875 -11.828125 L 6.734375 -11.828125 C 7.984375 -11.828125 9.085938 -11.570312 10.046875 -11.0625 C 11.003906 -10.5625 11.75 -9.863281 12.28125 -8.96875 C 12.8125 -8.082031 13.078125 -7.0625 13.078125 -5.90625 C 13.078125 -4.757812 12.8125 -3.738281 12.28125 -2.84375 C 11.75 -1.945312 11.003906 -1.25 10.046875 -0.75 C 9.085938 -0.25 7.984375 0 6.734375 0 L 1.921875 0 Z M 6.671875 -1.078125 C 7.703125 -1.078125 8.609375 -1.28125 9.390625 -1.6875 C 10.171875 -2.101562 10.773438 -2.675781 11.203125 -3.40625 C 11.628906 -4.132812 11.84375 -4.96875 11.84375 -5.90625 C 11.84375 -6.851562 11.628906 -7.691406 11.203125 -8.421875 C 10.773438 -9.148438 10.171875 -9.71875 9.390625 -10.125 C 8.609375 -10.539062 7.703125 -10.75 6.671875 -10.75 L 3.171875 -10.75 L 3.171875 -1.078125 Z M 6.671875 -1.078125 "/></g></g></g><g fill="#3b3f3f" fill-opacity="1"><g transform="translate(721.771464, 407.35827)"><g><path d="M 10.28125 -1.078125 L 10.28125 0 L 1.921875 0 L 1.921875 -11.828125 L 10.03125 -11.828125 L 10.03125 -10.75 L 3.171875 -10.75 L 3.171875 -6.53125 L 9.296875 -6.53125 L 9.296875 -5.46875 L 3.171875 -5.46875 L 3.171875 -1.078125 Z M 10.28125 -1.078125 "/></g></g></g><g fill="#3b3f3f" fill-opacity="1"><g transform="translate(746.114032, 407.35827)"><g><path d="M 7.09375 0.09375 C 5.925781 0.09375 4.863281 -0.164062 3.90625 -0.6875 C 2.957031 -1.207031 2.210938 -1.921875 1.671875 -2.828125 C 1.140625 -3.742188 0.875 -4.769531 0.875 -5.90625 C 0.875 -7.050781 1.140625 -8.078125 1.671875 -8.984375 C 2.210938 -9.898438 2.957031 -10.617188 3.90625 -11.140625 C 4.863281 -11.660156 5.925781 -11.921875 7.09375 -11.921875 C 8.257812 -11.921875 9.3125 -11.660156 10.25 -11.140625 C 11.195312 -10.628906 11.941406 -9.914062 12.484375 -9 C 13.023438 -8.082031 13.296875 -7.050781 13.296875 -5.90625 C 13.296875 -4.769531 13.023438 -3.742188 12.484375 -2.828125 C 11.941406 -1.910156 11.195312 -1.191406 10.25 -0.671875 C 9.3125 -0.160156 8.257812 0.09375 7.09375 0.09375 Z M 7.09375 -1.015625 C 8.03125 -1.015625 8.875 -1.222656 9.625 -1.640625 C 10.382812 -2.066406 10.976562 -2.65625 11.40625 -3.40625 C 11.832031 -4.15625 12.046875 -4.988281 12.046875 -5.90625 C 12.046875 -6.832031 11.832031 -7.671875 11.40625 -8.421875 C 10.976562 -9.171875 10.382812 -9.753906 9.625 -10.171875 C 8.875 -10.597656 8.03125 -10.8125 7.09375 -10.8125 C 6.15625 -10.8125 5.304688 -10.597656 4.546875 -10.171875 C 3.785156 -9.753906 3.1875 -9.171875 2.75 -8.421875 C 2.320312 -7.671875 2.109375 -6.832031 2.109375 -5.90625 C 2.109375 -4.988281 2.320312 -4.15625 2.75 -3.40625 C 3.1875 -2.65625 3.785156 -2.066406 4.546875 -1.640625 C 5.304688 -1.222656 6.15625 -1.015625 7.09375 -1.015625 Z M 7.09375 -1.015625 "/></g></g></g><g fill="#3b3f3f" fill-opacity="1"><g transform="translate(458.550781, 430.772679)"><g><path d="M 7.0625 0.09375 C 5.882812 0.09375 4.828125 -0.160156 3.890625 -0.671875 C 2.953125 -1.191406 2.210938 -1.910156 1.671875 -2.828125 C 1.140625 -3.742188 0.875 -4.769531 0.875 -5.90625 C 0.875 -7.050781 1.140625 -8.082031 1.671875 -9 C 2.210938 -9.914062 2.957031 -10.628906 3.90625 -11.140625 C 4.851562 -11.660156 5.910156 -11.921875 7.078125 -11.921875 C 7.953125 -11.921875 8.757812 -11.773438 9.5 -11.484375 C 10.25 -11.191406 10.882812 -10.765625 11.40625 -10.203125 L 10.609375 -9.40625 C 9.679688 -10.34375 8.515625 -10.8125 7.109375 -10.8125 C 6.171875 -10.8125 5.316406 -10.597656 4.546875 -10.171875 C 3.785156 -9.742188 3.1875 -9.15625 2.75 -8.40625 C 2.320312 -7.664062 2.109375 -6.832031 2.109375 -5.90625 C 2.109375 -4.988281 2.320312 -4.15625 2.75 -3.40625 C 3.1875 -2.664062 3.785156 -2.082031 4.546875 -1.65625 C 5.316406 -1.226562 6.171875 -1.015625 7.109375 -1.015625 C 8.523438 -1.015625 9.691406 -1.488281 10.609375 -2.4375 L 11.40625 -1.640625 C 10.882812 -1.078125 10.25 -0.644531 9.5 -0.34375 C 8.75 -0.0507812 7.9375 0.09375 7.0625 0.09375 Z M 7.0625 0.09375 "/></g></g></g><g fill="#3b3f3f" fill-opacity="1"><g transform="translate(483.736956, 430.772679)"><g><path d="M 11.8125 -11.828125 L 11.8125 0 L 10.578125 0 L 10.578125 -5.453125 L 3.171875 -5.453125 L 3.171875 0 L 1.921875 0 L 1.921875 -11.828125 L 3.171875 -11.828125 L 3.171875 -6.546875 L 10.578125 -6.546875 L 10.578125 -11.828125 Z M 11.8125 -11.828125 "/></g></g></g><g fill="#3b3f3f" fill-opacity="1"><g transform="translate(510.509119, 430.772679)"><g><path d="M 9.34375 -3.15625 L 2.75 -3.15625 L 1.328125 0 L 0.03125 0 L 5.4375 -11.828125 L 6.671875 -11.828125 L 12.078125 0 L 10.765625 0 Z M 8.890625 -4.171875 L 6.046875 -10.515625 L 3.203125 -4.171875 Z M 8.890625 -4.171875 "/></g></g></g><g fill="#3b3f3f" fill-opacity="1"><g transform="translate(535.661563, 430.772679)"><g><path d="M 11.8125 -11.828125 L 11.8125 0 L 10.78125 0 L 3.171875 -9.59375 L 3.171875 0 L 1.921875 0 L 1.921875 -11.828125 L 2.953125 -11.828125 L 10.578125 -2.234375 L 10.578125 -11.828125 Z M 11.8125 -11.828125 "/></g></g></g><g fill="#3b3f3f" fill-opacity="1"><g transform="translate(562.433726, 430.772679)"><g><path d="M 11.8125 -11.828125 L 11.8125 0 L 10.78125 0 L 3.171875 -9.59375 L 3.171875 0 L 1.921875 0 L 1.921875 -11.828125 L 2.953125 -11.828125 L 10.578125 -2.234375 L 10.578125 -11.828125 Z M 11.8125 -11.828125 "/></g></g></g><g fill="#3b3f3f" fill-opacity="1"><g transform="translate(589.205894, 430.772679)"><g><path d="M 10.28125 -1.078125 L 10.28125 0 L 1.921875 0 L 1.921875 -11.828125 L 10.03125 -11.828125 L 10.03125 -10.75 L 3.171875 -10.75 L 3.171875 -6.53125 L 9.296875 -6.53125 L 9.296875 -5.46875 L 3.171875 -5.46875 L 3.171875 -1.078125 Z M 10.28125 -1.078125 "/></g></g></g><g fill="#3b3f3f" fill-opacity="1"><g transform="translate(613.548483, 430.772679)"><g><path d="M 1.921875 -11.828125 L 3.171875 -11.828125 L 3.171875 -1.078125 L 9.796875 -1.078125 L 9.796875 0 L 1.921875 0 Z M 1.921875 -11.828125 "/></g></g></g></svg>